<svg width="202" height="51" viewBox="0 0 202 51" fill="none" xmlns="http://www.w3.org/2000/svg">
<g clip-path="url(#clip0_158_265)">
<path d="M174.508 19.546L171.227 23.9955C170.975 24.3337 170.838 24.7567 170.838 25.193C170.838 25.6293 170.975 26.0523 171.227 26.3905C172.324 27.9228 173.421 29.2849 174.508 30.8286C174.67 31.0574 174.878 31.2424 175.116 31.3697C175.354 31.497 175.615 31.5632 175.879 31.5632C176.144 31.5632 176.405 31.497 176.642 31.3697C176.88 31.2424 177.088 31.0574 177.251 30.8286C178.338 29.2963 179.425 27.8774 180.522 26.3905C180.77 26.0487 180.906 25.6245 180.906 25.1873C180.906 24.7501 180.77 24.3259 180.522 23.9841L177.22 19.546C177.057 19.3234 176.85 19.1438 176.616 19.0204C176.381 18.897 176.124 18.8329 175.864 18.8329C175.603 18.8329 175.347 18.897 175.112 19.0204C174.877 19.1438 174.671 19.3234 174.508 19.546ZM184.828 2.62202H183.793C183.687 2.62192 183.584 2.65464 183.494 2.7164C183.405 2.77815 183.333 2.86641 183.288 2.97095C183.242 3.07549 183.225 3.19202 183.237 3.30705C183.249 3.42208 183.291 3.5309 183.358 3.62089C185.832 7.02611 188.326 10.4313 190.811 13.8366C193.067 16.9391 195.31 20.0341 197.539 23.1215C197.972 23.7226 198.208 24.4665 198.208 25.2327C198.208 25.9989 197.972 26.7428 197.539 27.3439L190.852 36.5607C188.354 39.9887 185.852 43.4128 183.348 46.8332C183.284 46.9233 183.245 47.031 183.234 47.1442C183.223 47.2575 183.241 47.3717 183.287 47.4743C183.332 47.5768 183.402 47.6635 183.49 47.7247C183.577 47.7859 183.678 47.8191 183.782 47.8207H184.817C185.316 47.8219 185.808 47.7001 186.258 47.4643C186.708 47.2285 187.103 46.8848 187.415 46.4586L201.265 27.5028C201.73 26.8561 201.983 26.0564 201.983 25.2327C201.983 24.409 201.73 23.6093 201.265 22.9626L187.426 3.99546C187.116 3.56591 186.721 3.21913 186.271 2.98122C185.821 2.74332 185.327 2.6205 184.828 2.62202Z" fill="white"/>
<path d="M177.158 -9.51342e-05H169.405C169.062 0.000905007 168.725 0.105961 168.433 0.30347C168.14 0.50098 167.904 0.783258 167.748 1.11913C167.593 1.45501 167.525 1.83141 167.553 2.20678C167.58 2.58214 167.702 2.94186 167.904 3.24622C172.51 10.1815 177.789 17.1282 182.458 24.0635C182.68 24.3919 182.799 24.7898 182.799 25.1986C182.799 25.6073 182.68 26.0052 182.458 26.3336C177.789 33.2803 172.51 40.2156 167.904 47.1622C167.701 47.4655 167.579 47.8248 167.551 48.1999C167.523 48.575 167.59 48.9513 167.746 49.2868C167.901 49.6222 168.139 49.9037 168.432 50.0998C168.725 50.2958 169.062 50.3988 169.405 50.3972H177.158C177.714 50.3985 178.264 50.2624 178.765 49.9991C179.267 49.7358 179.708 49.352 180.056 48.8762L195.51 27.7184C196.039 26.9955 196.327 26.0966 196.327 25.1702C196.327 24.2437 196.039 23.3449 195.51 22.6219L180.108 1.5209C179.755 1.03754 179.305 0.649201 178.794 0.385581C178.282 0.121961 177.723 -0.00996024 177.158 -9.51342e-05ZM12.3492 25.1986C13.4982 18.6151 16.4896 15.8115 21.8722 15.8115C26.675 15.8115 28.6314 18.6605 27.6066 24.3473L27.5238 24.858C27.4391 25.359 27.197 25.8116 26.8396 26.1372C26.4822 26.4627 26.0321 26.6407 25.5675 26.6401H16.7381C16.6138 29.2735 17.7732 30.3972 20.009 30.3972C20.8857 30.3974 21.7576 30.2559 22.5967 29.9772C22.8645 29.8899 23.1475 29.8741 23.422 29.9313C23.6964 29.9884 23.9544 30.1169 24.1744 30.3058C24.3943 30.4947 24.5697 30.7387 24.6861 31.0172C24.8024 31.2958 24.8562 31.6008 24.8429 31.9068C24.8276 32.2626 24.7228 32.6068 24.5401 32.9013C24.3574 33.1958 24.104 33.4291 23.8078 33.5754C22.3917 34.251 20.8595 34.584 19.3155 34.5516C13.6328 34.5516 11.1589 31.782 12.3492 25.1986ZM17.1832 23.757H23.342C23.7871 21.2258 23.0522 19.9545 21.0027 19.9545C18.9532 19.9545 17.8249 21.1123 17.1832 23.757ZM28.828 25.1986C29.977 18.6151 33.0305 15.8115 38.5683 15.8115C39.8063 15.786 41.0336 16.0653 42.1601 16.6287C42.5263 16.832 42.8125 17.1746 42.9649 17.5924C43.1173 18.0103 43.1256 18.4748 42.9882 18.8989L42.8123 19.4551C42.7404 19.7089 42.6199 19.9429 42.4587 20.1414C42.2975 20.3398 42.0995 20.4981 41.8779 20.6057C41.6562 20.7132 41.4162 20.7675 41.1739 20.7648C40.9315 20.7621 40.6925 20.7026 40.4729 20.5902C39.6491 20.1629 38.7443 19.9567 37.8334 19.9886C35.3388 19.9886 33.9932 21.5323 33.3514 25.2326C32.7097 28.933 33.4756 30.4312 35.9806 30.4312C36.8398 30.4376 37.6938 30.2841 38.5062 29.9772C38.7655 29.8807 39.0422 29.854 39.3128 29.8993C39.5835 29.9446 39.8403 30.0607 40.0615 30.2376C40.2827 30.4145 40.4619 30.6472 40.584 30.916C40.706 31.1848 40.7673 31.4818 40.7628 31.782C40.7504 32.1051 40.6618 32.4193 40.5058 32.6938C40.3498 32.9683 40.1317 33.1938 39.8726 33.3484C38.4258 34.1619 36.8196 34.5749 35.1939 34.5516C29.6561 34.5516 27.6377 31.782 28.828 25.1986ZM47.6151 16.1974H47.905C48.4205 16.1942 48.9168 16.4119 49.2881 16.8042C49.6593 17.1964 49.8762 17.7322 49.8923 18.2973C50.4284 17.482 51.1397 16.8244 51.963 16.3829C52.7864 15.9413 53.6964 15.7295 54.6124 15.7661C58.7528 15.7661 60.0881 17.7979 59.26 22.5765L57.521 32.3722C57.4324 32.8701 57.1888 33.3188 56.832 33.6418C56.4753 33.9647 56.0273 34.1418 55.5647 34.1429H55.2542C54.9611 34.1423 54.6717 34.0705 54.4069 33.9328C54.142 33.7951 53.9082 33.5949 53.7223 33.3465C53.5363 33.098 53.4027 32.8076 53.3311 32.4959C53.2595 32.1842 53.2517 31.859 53.3082 31.5436L54.7056 23.5981C55.1507 21.0215 54.4468 20.0794 52.8424 20.0794C50.9896 20.0794 49.7371 21.555 48.8676 24.3359L47.4495 32.3382C47.3837 32.8451 47.1563 33.3102 46.8077 33.6509C46.4591 33.9916 46.0117 34.186 45.5449 34.1997H42.7916L45.6795 17.9568C45.7696 17.4648 46.0109 17.0216 46.3633 16.7013C46.7156 16.3811 47.1575 16.2032 47.6151 16.1974ZM60.8541 25.1986C62.003 18.6151 64.9945 15.8115 70.3459 15.8115C75.6974 15.8115 77.6848 18.6605 76.5565 25.1986C75.4283 31.7366 72.4161 34.5516 67.044 34.5516C61.6718 34.5516 59.6637 31.782 60.8541 25.1986ZM67.7789 30.3972C70.0872 30.3972 71.3707 28.8535 72.0125 25.1986C72.6542 21.5436 71.9504 19.9545 69.6421 19.9545C67.3338 19.9545 66.0192 21.4982 65.3775 25.1986C64.7357 28.8989 65.4396 30.3972 67.7789 30.3972ZM76.9395 31.1236C77.1121 30.6221 77.4565 30.2144 77.8994 29.9875C78.3422 29.7606 78.8484 29.7325 79.3099 29.9091C80.3954 30.3639 81.5434 30.6134 82.7051 30.6469C84.3716 30.6469 85.3342 29.9432 85.4895 28.9216C86.0381 25.8569 77.3122 28.5016 78.5647 21.328C79.2375 17.5255 81.8666 15.8455 86.0691 15.8455C87.2474 15.8463 88.4203 16.018 89.5574 16.3563C89.81 16.4312 90.0455 16.5632 90.2488 16.7439C90.452 16.9247 90.6185 17.1501 90.7375 17.4056C90.8565 17.6612 90.9253 17.9413 90.9395 18.2278C90.9538 18.5143 90.9132 18.8009 90.8202 19.0692C90.6477 19.5654 90.3066 19.969 89.8685 20.1955C89.4304 20.4219 88.9294 20.4535 88.4706 20.2837C87.5629 19.9512 86.6121 19.7825 85.6551 19.7843C84.1749 19.7843 83.2744 20.2383 83.1191 21.2939C82.5394 24.4608 91.3274 21.6458 90.0129 29.0238C89.34 32.8263 86.7109 34.5856 82.4152 34.5856C80.9655 34.591 79.5225 34.3693 78.1299 33.9273C77.8826 33.8485 77.6529 33.7145 77.4552 33.5335C77.2576 33.3525 77.0963 33.1286 76.9815 32.8758C76.8667 32.623 76.801 32.3469 76.7884 32.0649C76.7758 31.7828 76.8167 31.501 76.9085 31.2372L76.9395 31.1236ZM95.6128 16.1974H96.1924C96.6743 16.197 97.1375 16.4013 97.4849 16.7675C97.8323 17.1336 98.0369 17.6331 98.0556 18.1611C98.6865 17.3991 99.4595 16.7949 100.322 16.3895C101.185 15.9841 102.117 15.7869 103.055 15.8115C107.765 15.8115 109.431 18.6151 108.231 25.1986C107.03 31.782 104.411 34.5516 99.7014 34.5516C98.9063 34.6284 98.1066 34.4773 97.3808 34.1132C96.655 33.7491 96.0279 33.1843 95.561 32.4744L94.5259 38.2406C94.4373 38.7354 94.1949 39.1813 93.84 39.5021C93.4852 39.8229 93.0398 39.9989 92.5799 39.9999H89.8162L93.7806 17.8433C93.8665 17.3795 94.0956 16.9625 94.4295 16.6626C94.7633 16.3627 95.1812 16.1984 95.6128 16.1974ZM96.4201 27.6163C96.5444 29.4551 97.5691 30.3972 99.4012 30.3972C101.834 30.3972 103.117 28.8535 103.759 25.1986C104.401 21.5436 103.666 19.9545 101.264 19.9545C100.376 19.9479 99.5079 20.2464 98.7821 20.8083C98.0562 21.3701 97.509 22.1671 97.2172 23.0873L96.4201 27.6163ZM109.628 25.1986C110.787 18.6151 113.768 15.8115 119.151 15.8115C123.964 15.8115 125.921 18.6605 124.885 24.3473L124.772 25.0623C124.697 25.5052 124.483 25.9054 124.167 26.1936C123.851 26.4817 123.454 26.6397 123.043 26.6401H114.017C113.893 29.2735 115.052 30.3972 117.288 30.3972C118.168 30.3965 119.043 30.255 119.886 29.9772C120.153 29.8916 120.434 29.8772 120.707 29.9354C120.979 29.9935 121.235 30.1225 121.453 30.3114C121.671 30.5004 121.845 30.7438 121.959 31.0214C122.074 31.299 122.126 31.6026 122.111 31.9068C122.098 32.2633 121.995 32.6086 121.812 32.9036C121.629 33.1985 121.374 33.4313 121.076 33.5754C119.66 34.251 118.128 34.584 116.584 34.5516C110.912 34.5516 108.448 31.782 109.628 25.1986ZM114.472 23.757H120.683C121.128 21.2258 120.393 19.9545 118.333 19.9545C116.273 19.9545 115.114 21.1123 114.472 23.757ZM126.107 25.1986C127.266 18.6151 130.247 15.8115 135.63 15.8115C140.443 15.8115 142.399 18.6605 141.375 24.3473L141.25 25.0623C141.176 25.5033 140.963 25.902 140.65 26.19C140.336 26.4779 139.941 26.6371 139.532 26.6401H130.506C130.371 29.2735 131.541 30.3972 133.777 30.3972C134.654 30.3966 135.525 30.2551 136.365 29.9772C136.631 29.8916 136.913 29.8772 137.185 29.9354C137.458 29.9935 137.714 30.1225 137.932 30.3114C138.15 30.5004 138.324 30.7438 138.438 31.0214C138.553 31.299 138.605 31.6026 138.59 31.9068C138.578 32.2636 138.475 32.6095 138.292 32.9047C138.109 33.1999 137.853 33.4324 137.555 33.5754C136.136 34.2523 134.6 34.5853 133.052 34.5516C127.39 34.5516 124.927 31.782 126.107 25.1986ZM130.951 23.757H137.162C137.607 21.2258 136.872 19.9545 134.822 19.9545C132.773 19.9545 131.593 21.1123 130.951 23.757ZM142.596 25.1986C143.745 18.6151 146.405 15.8115 151.115 15.8115C151.93 15.7252 152.75 15.8923 153.483 16.2939C154.215 16.6954 154.829 17.3149 155.255 18.0816L156.29 12.1338C156.381 11.638 156.626 11.192 156.982 10.8713C157.339 10.5506 157.786 10.3751 158.247 10.3745H160.969L157.015 32.6219C156.93 33.0638 156.711 33.4608 156.393 33.7476C156.075 34.0344 155.677 34.1939 155.266 34.1997H154.614C154.159 34.1984 153.721 34.0098 153.388 33.6713C153.054 33.3328 152.849 32.8691 152.812 32.3722C152.149 33.0879 151.36 33.6497 150.494 34.0241C149.628 34.3985 148.702 34.5779 147.772 34.5516C143.072 34.5516 141.437 31.782 142.596 25.1986ZM149.614 30.3972C150.186 30.4325 150.759 30.3344 151.294 30.1094C151.829 29.8844 152.315 29.5376 152.719 29.0919C153.254 28.4584 153.613 27.6709 153.754 26.8217L154.624 22.0203C154.276 21.4487 153.817 20.9682 153.28 20.6131C152.744 20.258 152.142 20.037 151.519 19.9659C150.762 19.9217 150.011 20.1315 149.366 20.5675C148.258 21.3166 147.575 22.8376 147.15 25.2099C146.467 28.8535 147.171 30.3972 149.614 30.3972ZM12.1733 16.9466C11.9945 16.7091 11.7675 16.5207 11.5105 16.3966C11.2535 16.2724 10.9736 16.2159 10.6931 16.2315H6.93565L7.51531 12.6446C7.55653 12.3623 7.54475 12.0737 7.48067 11.7966C7.4166 11.5194 7.30158 11.2595 7.14267 11.0328C6.98389 10.7999 6.78184 10.6067 6.54987 10.4658C6.3179 10.3249 6.0613 10.2396 5.79704 10.2156C5.18833 10.2057 4.59803 10.4444 4.14088 10.8853C3.68779 11.2592 3.37196 11.7988 3.25069 12.4063L2.58822 16.2315H0.859606C0.739024 16.2309 0.621914 16.2757 0.527755 16.3583C0.433596 16.4409 0.368062 16.5564 0.342055 16.6855L0.000471872 18.2973C-0.0138292 18.4444 -0.0138292 18.5928 0.000471872 18.74C-0.00275178 19.1757 0.128585 19.5997 0.373108 19.9432C0.540422 20.1613 0.747496 20.3386 0.981024 20.4637C1.21455 20.5888 1.46937 20.6589 1.72909 20.6696L0.342055 27.8206C0.212717 28.5041 0.143394 29.1997 0.135035 29.8978C0.0984139 30.5097 0.179979 31.1233 0.374399 31.6984C0.56882 32.2734 0.871718 32.797 1.2633 33.2349C2.19489 34.1997 3.76824 34.6651 6.05581 34.6651C6.66892 34.6631 7.28115 34.6138 7.88794 34.5175C8.43869 34.4448 8.95566 34.1879 9.36863 33.7817C9.7816 33.3756 10.0706 32.8399 10.1962 32.2474C10.2276 32.0792 10.245 31.9082 10.248 31.7366C10.248 31.135 9.99955 30.1475 8.33304 30.1475H8.28128C7.76381 30.2327 7.24154 30.2782 6.71828 30.2837C5.35194 30.2837 4.92755 30.034 4.81369 29.9205C4.71922 29.8017 4.64833 29.6626 4.60556 29.5121C4.56279 29.3617 4.54907 29.2031 4.56527 29.0465C4.56967 28.7293 4.60436 28.4136 4.66878 28.1043L6.09722 20.7264H11.6971C11.8164 20.7264 11.9321 20.6812 12.0245 20.5985C12.1169 20.5157 12.1805 20.4005 12.2043 20.2723L12.5355 18.6605C12.5458 18.5132 12.5458 18.3652 12.5355 18.2178C12.551 17.7611 12.4231 17.3124 12.1733 16.9466Z" fill="white"/>
</g>
<defs>
<clipPath id="clip0_158_265">
<rect width="202" height="50.42" fill="white"/>
</clipPath>
</defs>
</svg>
